HIERARCHY
ROOT ui
{
	 OFFSET 0 0 0
	 CHANNELS 3 XPosition YPosition Z Position
	 EndSite
	 {
	 OFFSET 0 -1 0
	 }
}
ROOT li
{
	 OFFSET 0 0 0
	 CHANNELS 3 XPosition YPosition Z Position
	 EndSite
	 {
	 OFFSET 0 -1 0
	 }
}
ROOT ul
{
	 OFFSET 0 0 0
	 CHANNELS 3 XPosition YPosition Z Position
	 EndSite
	 {
	 OFFSET 0 -1 0
	 }
}
ROOT ll
{
	 OFFSET 0 0 0
	 CHANNELS 3 XPosition YPosition Z Position
	 EndSite
	 {
	 OFFSET 0 -1 0
	 }
}
ROOT tt
{
	 OFFSET 0 0 0
	 CHANNELS 3 XPosition YPosition Z Position
	 EndSite
	 {
	 OFFSET 0 -1 0
	 }
}
ROOT tb
{
	 OFFSET 0 0 0
	 CHANNELS 3 XPosition YPosition Z Position
	 EndSite
	 {
	 OFFSET 0 -1 0
	 }
}
ROOT td
{
	 OFFSET 0 0 0
	 CHANNELS 3 XPosition YPosition Z Position
	 EndSite
	 {
	 OFFSET 0 -1 0
	 }
}
ROOT v
{
	 OFFSET 0 0 0
	 CHANNELS 3 XPosition YPosition Z Position
	 EndSite
	 {
	 OFFSET 0 -1 0
	 }
}
ROOT bn
{
	 OFFSET 0 0 0
	 CHANNELS 3 XPosition YPosition Z Position
	 EndSite
	 {
	 OFFSET 0 -1 0
	 }
}
MOTION
Frames: 29
Frame Time: 0.002
-0.004597302913665772	-4.419420063495636E-4	0		0.48926730346679687	-2.43437939453125	0		-1.0091640014648438	0.030715421676635744	0		-0.7255253295898437	-2.221755615234375	0		1.7274368896484376	-0.4920177001953125	0		3.338060546875	-0.241872802734375	0		4.69607568359375	-0.16044683837890625	0		5.5908271484375	0.15078378295898437	0		0.03155901145935058	5.991125	0		
-0.0052209792137145996	-1.4161400496959687E-4	0		0.46203262329101563	-2.430449951171875	0		-1.009791748046875	0.030883544921875	0		-0.6899063720703125	-2.224302978515625	0		1.76684814453125	-0.49332611083984373	0		3.35675732421875	-0.22753317260742187	0		4.69547314453125	-0.15952787780761718	0		5.57539599609375	0.16213214111328125	0		0.029167964935302736	5.99245068359375	0		
-0.009001412391662598	-0.003772442102432251	0		0.4595997924804687	-2.433038818359375	0		-1.0104938354492188	0.031054296493530274	0		-0.7652471923828125	-2.220530517578125	0		1.766216552734375	-0.49278167724609373	0		3.372795166015625	-0.24112515258789063	0		4.694796875	-0.15858934020996093	0		5.58946484375	0.1528794403076172	0		0.0276635799407959	5.99276123046875	0		
-0.006690673828125	4.752239882946014E-4	0		0.461218017578125	-2.42970703125	0		-1.011269775390625	0.031229591369628905	0		-0.6907765502929688	-2.22387060546875	0		1.7703863525390624	-0.49833355712890626	0		3.35963720703125	-0.21209567260742188	0		4.703982421875	-0.16084982299804687	0		5.59279541015625	0.15986172485351563	0		-0.0911606216430664	5.98249560546875	0		
-0.007534071922302246	7.907450199127197E-4	0		0.46273843383789065	-2.42737060546875	0		-1.0121172485351562	0.0314115047454834	0		-0.7621654663085937	-2.215190673828125	0		1.72198876953125	-0.47880050659179685	0		3.37124462890625	-0.23959330749511717	0		4.71415771484375	-0.16013351440429688	0		5.59197216796875	0.16292153930664063	0		-0.09279961395263672	5.9827998046875	0		
-0.008445018768310547	0.0011106990575790404	0		0.46010073852539063	-2.42894873046875	0		-1.0130321655273438	0.031601701736450195	0		-0.6919476928710937	-2.22341455078125	0		1.7638861083984374	-0.4911314697265625	0		3.372935302734375	-0.21088352966308593	0		4.69645458984375	-0.14985890197753907	0		5.59038671875	0.18098161315917968	0		0.02471633720397949	5.99168017578125	0		
-0.012497884750366211	-0.0025035550594329835	0		0.4573692321777344	-2.431525390625	0		-1.0140083618164062	0.031801271438598636	0		-0.7655279541015625	-2.216696533203125	0		1.7570975341796875	-0.4844672241210938	0		3.35874853515625	-0.22187423706054688	0		4.7064990234375	-0.14917437744140624	0		5.5958837890625	0.1568631591796875	0		0.02202165412902832	5.9930283203125	0		
-0.010442912101745605	0.0017628289461135865	0		0.45662966918945314	-2.431142578125	0		-1.0190969848632812	0.029092426300048827	0		-0.6954683837890625	-2.225886474609375	0		1.756129150390625	-0.483931640625	0		3.3518916015625	-0.21403091430664062	0		4.700310546875	-0.1571895751953125	0		5.59416259765625	0.17386680603027344	0		0.021271686553955078	5.99233984375	0		
-0.014589908599853516	-0.0018445570468902587	0		0.45788848876953125	-2.42780029296875	0		-1.0161080932617188	0.03223285293579101	0		-0.7562797241210938	-2.22442724609375	0		1.7658721923828125	-0.4956244201660156	0		3.36738330078125	-0.2366669464111328	0		4.70821875	-0.15852177429199218	0		5.597875	0.16471429443359376	0		-0.09670928955078124	5.98100244140625	0		
-0.005487491130828857	0.00828889560699463	0		0.4631746520996094	-2.4205390625	0		-0.9931913452148438	0.03298870849609375	0		-0.687986572265625	-2.21654443359375	0		1.7630264892578125	-0.4850735168457031	0		3.371968994140625	-0.20309991455078125	0		4.70543896484375	-0.14267739868164062	0		5.59676318359375	0.1656107940673828	0		-0.11361937713623046	5.97063037109375	0		
-0.013712288856506348	0.002767599105834961	0		0.45818667602539065	-2.425078125	0		-1.0183157348632812	0.032715412139892576	0		-0.7319652709960938	-2.21941259765625	0		1.7530050048828125	-0.4823982849121094	0		3.341489501953125	-0.2218791961669922	0		4.70808642578125	-0.15499369812011718	0		5.58568408203125	0.1686492919921875	0		-0.11624047088623046	5.97197900390625	0		
-0.014810524940490722	0.0031067171096801757	0		0.4801368713378906	-2.4321552734375	0		-0.9865018920898437	0.02832367515563965	0		-0.698993896484375	-2.22480126953125	0		1.751945068359375	-0.481919921875	0		3.3536435546875	-0.20953504943847656	0		4.7011796875	-0.14516560363769532	0		5.57975146484375	0.17852679443359376	0		4.050650000572205E-4	5.981974609375	0		
-0.018956119537353516	-4.95620995759964E-4	0		0.4522807006835938	-2.429251953125	0		-1.0245440673828126	0.030323822021484374	0		-0.7358427734375	-2.220801513671875	0		1.7447740478515625	-0.48834173583984375	0		3.354334228515625	-0.22200376892089843	0		4.6949462890625	-0.15340501403808593	0		5.57929736328125	0.16023118591308594	0		-0.13349876403808594	5.9619189453125	0		
0.056998310089111326	-0.002674870014190674	0		0.45141226196289064	-2.42889111328125	0		-1.0155982055664063	0.028401910781860353	0		-0.726882568359375	-2.228705322265625	0		1.7558089599609374	-0.4871408996582031	0		3.357630126953125	-0.20655397033691406	0		4.71701806640625	-0.14924761962890626	0		5.592431640625	0.1686165313720703	0		0.01177980899810791	5.99337060546875	0		
-0.017819595336914063	0.004103697776794433	0		0.4277647705078125	-2.4200927734375	0		-1.0183530883789063	0.0377152099609375	0		-0.6975110473632813	-2.2190048828125	0		1.75798095703125	-0.482785888671875	0		3.3524169921875	-0.22097796630859376	0		4.7064306640625	-0.1314921417236328	0		5.57669140625	0.17951513671875	0		-0.12187575531005859	5.97328857421875	0		
0.05524010848999023	-0.002027060031890869	0		0.4788734130859375	-2.42877392578125	0		-1.0232603759765626	0.034066650390625	0		-0.7002833251953124	-2.22067919921875	0		1.754095703125	-0.4863356323242187	0		3.37982763671875	-0.20906887817382813	0		4.706314453125	-0.1459922637939453	0		5.5806982421875	0.1719725799560547	0		-0.004746595859527588	5.9832900390625	0		
-0.019357980728149413	0.004719953060150147	0		0.4492579650878906	-2.427888427734375	0		-1.0280291748046875	0.03140964698791504	0		-0.7029700927734375	-2.223363525390625	0		1.74165966796875	-0.4727379150390625	0		3.360031494140625	-0.21327166748046875	0		4.70560986328125	-0.14551824951171874	0		5.58513720703125	0.18037950134277345	0		-0.005675370216369629	5.983591796875	0		
0.05089288711547851	-0.004378317832946777	0		0.4477167358398437	-2.4295703125	0		-1.02860986328125	0.03166112518310547	0		-0.7414523315429687	-2.221361328125	0		1.74695751953125	-0.4795139465332031	0		3.35945849609375	-0.21288067626953125	0		4.70503466796875	-0.14508448791503906	0		5.585201171875	0.1628251495361328	0		0.008746753692626954	5.99358154296875	0		
-0.020379756927490233	0.0052657098770141604	0		0.42348345947265625	-2.421829345703125	0		-1.0131917724609374	0.024585205078125	0		-0.7279126586914062	-2.225390869140625	0		1.7524111328125	-0.4853180236816406	0		3.355750732421875	-0.22646308898925782	0		4.70255859375	-0.1466510467529297	0		5.57891162109375	0.17135910034179688	0		-0.12330459594726563	5.9723974609375	0		
0.07199089813232422	-0.012301214218139648	0		0.4542757263183594	-2.420183837890625	0		-1.0012816772460937	0.035562477111816405	0		-0.7620546875	-2.21951171875	0		1.7600626220703126	-0.4881918029785156	0		3.39591455078125	-0.2029240264892578	0		4.717375	-0.1405894317626953	0		5.5837998046875	0.181635986328125	0		0.008649145126342773	5.99206298828125	0		
-0.020842313766479492	0.0057115240097045895	0		0.4500913696289062	-2.42388623046875	0		-1.0254588623046874	0.035215251922607424	0		-0.7021585083007813	-2.219484130859375	0		1.74608935546875	-0.47867333984375	0		3.34459228515625	-0.21064749145507813	0		4.70343310546875	-0.12900526428222656	0		5.58363427734375	0.18196986389160155	0		-0.006818089008331299	5.9835654296875	0		
-0.023948192596435547	0.0019478249549865724	0		0.4480543518066406	-2.426659912109375	0		-1.0295457763671876	0.03245022964477539	0		-0.7770890502929687	-2.215866943359375	0		1.751952880859375	-0.4845750427246094	0		3.37354296875	-0.2119634246826172	0		4.72093798828125	-0.15307585144042968	0		5.57911767578125	0.157343994140625	0		-0.12517958068847657	5.974033203125	0		
-0.009125272750854492	-0.012196697235107423	0		0.4471587219238281	-2.42848779296875	0		-1.029449462890625	0.03257455825805664	0		-0.7081373901367187	-2.22607275390625	0		1.74617626953125	-0.47828289794921874	0		3.35864697265625	-0.21146510314941405	0		4.70835009765625	-0.13659371948242188	0		5.56954296875	0.17478408813476562	0		-0.006985588073730469	5.98388671875	0		
0.05333266830444336	-2.9140299558639524E-4	0		0.4484586791992187	-2.426391845703125	0		-1.0133707885742187	0.025355396270751954	0		-0.766829833984375	-2.22283642578125	0		1.752285400390625	-0.4842588195800781	0		3.36917626953125	-0.19549351501464843	0		4.71268603515625	-0.13047987365722657	0		5.58871533203125	0.17262464904785157	0		-0.1241051254272461	5.9732607421875	0		
-0.020223466873168946	0.006209422111511231	0		0.45293087768554685	-2.42139208984375	0		-1.013037841796875	0.02540761375427246	0		-0.7013726806640626	-2.21903759765625	0		1.76056787109375	-0.48731179809570313	0		3.35920556640625	-0.21116749572753907	0		4.7178466796875	-0.13942140197753905	0		5.58904541015625	0.17279360961914061	0		0.008523284912109375	5.9927724609375	0		
0.06798740386962891	-0.006456929206848145	0		0.451376220703125	-2.423313232421875	0		-1.024403076171875	0.035650959014892576	0		-0.7388856201171875	-2.218284423828125	0		1.753075927734375	-0.48409429931640624	0		3.378916015625	-0.19744468688964845	0		4.7134638671875	-0.13020954895019532	0		5.58467626953125	0.18302101135253906	0		-0.006316145896911621	5.984095703125	0		
-0.022328384399414064	0.00229146409034729	0		0.47481475830078124	-2.430754638671875	0		-0.9909550170898438	0.030987972259521483	0		-0.7044144287109375	-2.223961181640625	0		1.747734130859375	-0.4779540710449219	0		3.360185302734375	-0.21101914978027345	0		4.71603662109375	-0.1281669921875	0		5.5800517578125	0.17521697998046876	0		-0.005897202968597412	5.98408837890625	0		
-0.02172266960144043	0.002243300914764404	0		0.4495120849609375	-2.428292236328125	0		-1.02732373046875	0.03263365173339844	0		-0.7037645263671874	-2.22402294921875	0		1.748349365234375	-0.4779671325683594	0		3.355950439453125	-0.20290533447265624	0		4.7153173828125	-0.14509873962402345	0		5.580615234375	0.17328028869628906	0		-0.13782894897460937	5.96358935546875	0		
-0.006334541797637939	-0.012131962776184082	0		0.45126138305664065	-2.42639111328125	0		-1.014858642578125	0.02229453659057617	0		-0.7291492919921875	-2.22862451171875	0		1.7597867431640626	-0.49022900390625	0		3.370419921875	-0.21319195556640624	0		4.720095703125	-0.13916754150390626	0		5.5812724609375	0.17330758666992188	0		-0.12114115905761719	5.97118798828125	0		
